<svg xmlns="http://www.w3.org/2000/svg">
	<symbol id="search" viewBox="0 0 20 21" fill="none">
		<path d="m14.167 14.667 2.5 2.5m-1.141-6.82a5.68 5.68 0 1 1-11.359 0 5.68 5.68 0 0 1 11.359 0Z" stroke="currentColor" stroke-width="2" stroke-linecap="round" stroke-linejoin="round"/>
	</symbol>
	<symbol id="favorites" viewBox="0 0 24 24" fill="none"><path fill="currentColor" fill-rule="evenodd" d="M5.571 4.595v14.047l4.764-2.3a3.826 3.826 0 0 1 3.33 0l4.764 2.3V4.595H5.57ZM4.286 2C3.576 2 3 2.58 3 3.297v17.404c0 .955.987 1.582 1.84 1.17l6.605-3.188c.351-.17.759-.17 1.11 0l6.604 3.188c.854.412 1.841-.215 1.841-1.17V3.297C21 2.581 20.424 2 19.714 2H4.286Z" clip-rule="evenodd"/><path fill="currentColor" d="M5 4h14v15l-7-3-7 3V4Z"/></symbol>
	<symbol id="favorites-stroke" viewBox="0 0 24 24" fill="none"><path fill="currentColor" fill-rule="evenodd" d="M5.571 4.595v14.047l4.764-2.3a3.826 3.826 0 0 1 3.33 0l4.764 2.3V4.595H5.57ZM4.286 2C3.576 2 3 2.58 3 3.297v17.404c0 .955.987 1.582 1.84 1.17l6.605-3.188c.351-.17.759-.17 1.11 0l6.604 3.188c.854.412 1.841-.215 1.841-1.17V3.297C21 2.581 20.424 2 19.714 2H4.286Z" clip-rule="evenodd"/></symbol>
	<symbol id="phone" viewBox="0 0 20 20" fill="none">
		<path d="m1.254 1.852.958-.827C3.11.25 4.426.342 5.286 1.24L7 3.03c.746.78.96 1.974.532 2.953L6.334 8.708c.562 1.095 1.368 2.066 2.416 2.915a9.422 9.422 0 0 0 3.387 1.79l2.012-1.785c.763-.674 1.86-.725 2.719-.124l2.004 1.397c1 .699 1.4 2.072.935 3.214l-.497 1.224c-.495 1.218-1.561 2.032-2.798 2.135-2.921.246-6.272-1.256-10.057-4.504C2.665 11.717.528 8.502.047 5.33c-.202-1.334.256-2.658 1.207-3.478Z" fill="currentColor"/>
	</symbol>
	<symbol id="map-marker" viewBox="0 0 24 24" fill="none">
		<path d="M12 1.5a8.26 8.26 0 0 0-8.25 8.25 8.167 8.167 0 0 0 1.662 4.95s.225.296.262.339L12 22.5l6.33-7.465.258-.335v-.002A8.164 8.164 0 0 0 20.25 9.75 8.26 8.26 0 0 0 12 1.5Zm0 11.25a3 3 0 1 1 0-5.999 3 3 0 0 1 0 5.999Z" fill="currentColor"/>
	</symbol>
	<symbol id="mail" viewBox="0 0 31 30" fill="none">
		<path d="M1.558 22.241V12.46c0-.156.156-.26.293-.195l11.76 5.538a4.032 4.032 0 0 0 3.445 0l11.759-5.538c.137-.065.294.04.294.195v9.782c0 1.58-1.24 2.86-2.769 2.86H4.326c-1.529 0-2.768-1.28-2.768-2.86Z" fill="currentColor"/>
		<path d="M1.558 8.214v2.088c0 .077.045.148.116.182l11.84 5.636a4.241 4.241 0 0 0 3.639 0l11.839-5.636a.202.202 0 0 0 .117-.182V8.214c0-1.493-1.24-2.704-2.769-2.704H4.326c-1.529 0-2.768 1.21-2.768 2.704Z" fill="currentColor"/>
	</symbol>
	<symbol id="telegram" viewBox="0 0 31 30" fill="none">
		<path d="M4.43 14.139c6.235-2.731 10.392-4.532 12.471-5.402 5.942-2.484 7.175-2.916 7.98-2.93.177-.003.572.04.829.25.214.177.274.415.304.583.027.167.064.548.034.846-.321 3.4-1.715 11.652-2.423 15.461-.298 1.612-.89 2.152-1.46 2.205-1.244.115-2.186-.825-3.39-1.618-1.88-1.241-2.943-2.013-4.771-3.224-2.112-1.399-.742-2.168.46-3.425.315-.329 5.789-5.334 5.893-5.788.013-.057.026-.268-.1-.38-.124-.112-.308-.073-.442-.043-.19.043-3.195 2.042-9.023 5.995-.852.59-1.624.877-2.319.862-.762-.016-2.232-.434-3.325-.791-1.337-.438-2.403-.67-2.31-1.413.048-.387.579-.783 1.591-1.188Z" fill="currentColor"/>
	</symbol>
	<symbol id="whatsapp" viewBox="0 0 31 30" fill="none">
		<path d="m2.838 27.5 1.69-6.21A12.442 12.442 0 0 1 2.833 15c0-6.904 5.596-12.5 12.5-12.5s12.5 5.596 12.5 12.5-5.596 12.5-12.5 12.5a12.442 12.442 0 0 1-6.287-1.694L2.838 27.5Zm7.984-18.365c-.162.01-.32.053-.464.125-.136.077-.26.173-.367.285-.15.141-.235.264-.327.383a3.411 3.411 0 0 0-.706 2.097c.003.612.163 1.209.413 1.766.51 1.128 1.352 2.322 2.463 3.428.268.266.529.534.81.782a11.81 11.81 0 0 0 4.8 2.558l.712.108c.23.013.462-.005.695-.016.364-.018.719-.117 1.04-.288.165-.085.324-.177.48-.276 0 0 .053-.035.156-.112.168-.125.272-.214.412-.36.104-.107.194-.234.263-.377.097-.204.195-.593.235-.917.03-.247.021-.382.017-.466-.005-.134-.116-.273-.237-.331l-.728-.326s-1.087-.474-1.751-.777a.621.621 0 0 0-.221-.051.602.602 0 0 0-.473.159v-.003c-.006 0-.09.072-.994 1.166a.437.437 0 0 1-.46.163 1.767 1.767 0 0 1-.238-.082c-.155-.066-.209-.09-.315-.137l-.006-.002a7.517 7.517 0 0 1-1.963-1.25c-.157-.138-.304-.288-.454-.433a7.87 7.87 0 0 1-1.275-1.585l-.074-.118a1.158 1.158 0 0 1-.127-.257c-.047-.184.076-.331.076-.331s.304-.332.445-.512a5.48 5.48 0 0 0 .329-.467c.148-.237.194-.481.116-.67A103.91 103.91 0 0 0 12.02 9.46c-.074-.168-.292-.288-.491-.311-.068-.008-.135-.015-.203-.02a4.23 4.23 0 0 0-.503.005v.001Z" fill="currentColor"/>
	</symbol>
	<symbol id="burger" viewBox="0 0 24 24" fill="none">
		<rect x="4" y="6" width="16" height="2" rx="1" fill="currentColor"/>
		<rect x="4" y="11" width="16" height="2" rx="1" fill="currentColor"/>
		<rect x="4" y="16" width="16" height="2" rx="1" fill="currentColor"/>
	</symbol>
	<symbol id="arrow-left" viewBox="0 0 24 24" fill="currentColor">
		<path d="M14.236 15.602a.98.98 0 1 1-1.385 1.385L8 12.137l.692-.693a.98.98 0 0 1 1.386 0l4.157 4.158Z"/>
		<path d="M10.08 12.83a.98.98 0 0 1-1.387 0L8 12.137l4.85-4.85a.98.98 0 0 1 1.386 1.386L10.08 12.83Z"/>
	</symbol>
	<symbol id="arrow-right" viewBox="0 0 40 40" fill="none"><path fill="currentColor" fill-rule="evenodd" d="M13.6 34.934a2.5 2.5 0 0 0 3.536 0l15.017-15.018L17.136 4.9A2.5 2.5 0 1 0 13.6 8.434l11.482 11.482L13.6 31.398a2.5 2.5 0 0 0 0 3.536Z" clip-rule="evenodd"/></symbol>
	<symbol id="checkbox" viewBox="0 0 18 19" fill="none">
		<path d="M4.628 10.564a1.124 1.124 0 1 1 1.59-1.59l1.59 1.59a2.248 2.248 0 0 1 0 3.18l-3.18-3.18Z" fill="currentColor"/>
		<path d="M11.782 6.589a1.124 1.124 0 0 1 1.59 1.59l-5.564 5.564a2.248 2.248 0 0 1 0-3.18l3.974-3.974Z" fill="currentColor"/>
	</symbol>
	<symbol id="check-square" viewBox="0 0 40 40" fill="none">
		<path fill-rule="evenodd" clip-rule="evenodd" d="M38.08 5.252a2 2 0 0 1 0 2.828L21.415 24.747a2 2 0 0 1-2.828 0l-5-5a2 2 0 1 1 2.828-2.828L20 20.504 35.252 5.252a2 2 0 0 1 2.829 0Z" fill="currentColor"/>
		<path fill-rule="evenodd" clip-rule="evenodd" d="M8.333 7A1.333 1.333 0 0 0 7 8.333v23.334A1.333 1.333 0 0 0 8.333 33h23.334A1.334 1.334 0 0 0 33 31.667V20a2 2 0 1 1 4 0v11.667A5.333 5.333 0 0 1 31.667 37H8.333A5.333 5.333 0 0 1 3 31.667V8.333A5.333 5.333 0 0 1 8.333 3h18.334a2 2 0 0 1 0 4H8.333Z" fill="currentColor"/>
	</symbol>
	<symbol id="check-circle" viewBox="0 0 228 228" fill="none"><g filter="url(#a)"><path fill="currentColor" d="M67.109 122.526c-4.709-4.709-4.709-12.343 0-17.051 4.708-4.709 12.342-4.709 17.05 0l17.052 17.051c9.417 9.417 9.417 24.685 0 34.102l-34.102-34.102Z"/><path fill="currentColor" d="M143.839 79.898c4.709-4.709 12.343-4.709 17.052 0 4.708 4.708 4.708 12.342 0 17.051l-59.68 59.679c-9.417-9.417-9.417-24.685 0-34.102l42.628-42.628Z"/><rect width="188" height="188" x="20" y="20" stroke="currentColor" stroke-width="2" rx="94" shape-rendering="crispEdges"/></g><defs><filter id="a" width="228" height="228" x="0" y="0" color-interpolation-filters="sRGB" filterUnits="userSpaceOnUse"><feFlood flood-opacity="0" result="BackgroundImageFix"/><feColorMatrix in="SourceAlpha" result="hardAlpha" values="0 0 0 0 0 0 0 0 0 0 0 0 0 0 0 0 0 0 127 0"/><feOffset/><feGaussianBlur stdDeviation="9.5"/><feComposite in2="hardAlpha" operator="out"/><feColorMatrix values="0 0 0 0 0.188235 0 0 0 0 0.835294 0 0 0 0 0.780392 0 0 0 1 0"/><feBlend in2="BackgroundImageFix" result="effect1_dropShadow_489_3216"/><feBlend in="SourceGraphic" in2="effect1_dropShadow_489_3216" result="shape"/></filter></defs></symbol>
	<symbol id="box" viewBox="0 0 40 40" fill="none">
		<path fill="currentColor" d="M13.333 20.667h-10v-2.334h10v2.334Zm2.5 9.333h-10v-2.333h10V30Zm2.5-4.667h-10V23h10v2.333Z"/><path fill="currentColor" d="M34.411 11.489 23.048 5.143a1.123 1.123 0 0 0-1.096 0l-11.364 6.346a1.167 1.167 0 0 0 0 2.022l10.775 6.017v12.368l-3.45-1.927-1.095 2.02 5.134 2.868a1.121 1.121 0 0 0 1.096 0L34.41 28.51A1.168 1.168 0 0 0 35 27.5V12.499c0-.207-.055-.41-.158-.587a1.145 1.145 0 0 0-.43-.424ZM22.5 7.471l9.006 5.029-9.006 5.028-9.006-5.028L22.5 7.47Zm10.227 19.347-9.09 5.077V19.527l9.09-5.077v12.368Z"/>
	</symbol>
	<symbol id="docs" viewBox="0 0 40 40" fill="none">
		<path fill="currentColor" d="M20.31 24.253c-1.028 0-1.628.978-1.628 2.288 0 1.319.618 2.25 1.638 2.25 1.028 0 1.618-.98 1.618-2.29 0-1.21-.58-2.248-1.628-2.248Z"/>
		<path fill="currentColor" d="M23.334 3.333H10a3.333 3.333 0 0 0-3.333 3.334v26.666A3.333 3.333 0 0 0 10 36.668h20a3.333 3.333 0 0 0 3.334-3.334v-20l-10-10ZM15.259 29.09c-.71.59-1.789.869-3.107.869-.792 0-1.35-.05-1.73-.1V23.24c.682-.098 1.37-.144 2.058-.138 1.28 0 2.11.23 2.759.72.7.52 1.14 1.35 1.14 2.537 0 1.291-.47 2.181-1.12 2.731Zm4.983.91c-2 0-3.168-1.51-3.168-3.43 0-2.018 1.288-3.526 3.278-3.526 2.068 0 3.198 1.548 3.198 3.408C23.55 28.66 22.21 30 20.242 30ZM28 28.73c.459 0 .969-.102 1.27-.22l.23 1.188c-.28.14-.91.29-1.728.29-2.328 0-3.528-1.448-3.528-3.368 0-2.298 1.638-3.576 3.678-3.576.79 0 1.388.16 1.658.3l-.31 1.21a3.298 3.298 0 0 0-1.28-.25c-1.21 0-2.15.73-2.15 2.23 0 1.348.8 2.196 2.16 2.196ZM23.334 15h-1.667V6.667L30 15h-6.666Z"/>
		<path fill="currentColor" d="M12.64 24.271c-.339 0-.559.03-.689.06v4.409c.13.03.34.03.528.03 1.38.01 2.279-.748 2.279-2.358.01-1.4-.808-2.14-2.118-2.14Z"/>
	</symbol>
	<symbol id="close" viewBox="0 0 32 32" fill="none"><path fill-rule="evenodd" clip-rule="evenodd" d="M6.822 6.821c.65-.65 1.706-.65 2.357 0l16 16a1.667 1.667 0 1 1-2.357 2.357l-16-16a1.667 1.667 0 0 1 0-2.357Z" fill="currentColor"/><path fill-rule="evenodd" clip-rule="evenodd" d="M25.178 6.821a1.667 1.667 0 0 0-2.357 0l-16 16a1.667 1.667 0 1 0 2.357 2.357l16-16c.651-.65.651-1.706 0-2.357Z" fill="currentColor"/></symbol>
	<symbol id="catalog" viewBox="0 0 24 25" fill="none"><rect width="7.875" height="7.875" x="3" y="3.5" fill="currentColor" rx="1"/><rect width="7.875" height="7.875" x="3" y="13.625" fill="currentColor" rx="1"/><rect width="7.875" height="7.875" x="13.125" y="3.5" fill="currentColor" rx="1"/><rect width="7.875" height="7.875" x="13.125" y="13.625" fill="currentColor" rx="1"/></symbol>
	<symbol id="info" viewBox="0 0 24 25" fill="none"><g clip-path="url(#a)"><path fill="currentColor" d="M12 24.5a12 12 0 1 0 0-24 12 12 0 0 0 0 24Zm1.395-14.118-1.5 7.057c-.105.51.043.8.456.8.291 0 .73-.105 1.029-.369l-.132.624c-.43.519-1.38.897-2.197.897-1.055 0-1.504-.633-1.213-1.978l1.107-5.203c.096-.439.01-.598-.43-.705l-.677-.121.123-.572 3.435-.43h-.001ZM12 8.75a1.5 1.5 0 1 1 0-3 1.5 1.5 0 0 1 0 3Z"/></g><defs><clipPath id="a"><path fill="currentColor" d="M0 .5h24v24H0z"/></clipPath></defs></symbol>
	<symbol id="lattice" viewBox="0 0 24 25" fill="none"><path fill="currentColor" d="M21 9.5V8h-4.5V3.5H15V8H9V3.5H7.5V8H3v1.5h4.5v6H3V17h4.5v4.5H9V17h6v4.5h1.5V17H21v-1.5h-4.5v-6H21Zm-6 6H9v-6h6v6Z"/></symbol>
	<symbol id="gallery" viewBox="0 0 24 25" fill="none"><path fill="currentColor" d="M3.6 6.5a2.4 2.4 0 0 0-2.4 2.4v12a2.4 2.4 0 0 0 2.4 2.4h16.8a2.4 2.4 0 0 0 2.4-2.4v-12a2.4 2.4 0 0 0-2.4-2.4H3.6Zm0 13.2 4.2-5.4 3 3.6 4.2-5.4 5.4 7.2H3.6ZM19.2 2.9a2.4 2.4 0 0 1 2.4 2.4H2.4a2.4 2.4 0 0 1 2.4-2.4h14.4Z"/></symbol>
	<symbol id="cubies" viewBox="0 0 29 30" fill="none">
		<rect width="9.516" height="9.516" x="3.625" y="4.125" fill="currentColor" rx="1.208"/>
		<rect width="9.516" height="9.516" x="3.625" y="16.359" fill="currentColor" rx="1.208"/>
		<rect width="9.516" height="9.516" x="15.859" y="4.125" fill="currentColor" rx="1.208"/>
		<rect width="9.516" height="9.516" x="15.859" y="16.359" fill="currentColor" rx="1.208"/>
	</symbol>
	<symbol id="filter" viewBox="0 0 30 30" fill="none"><rect width="20" height="2.5" x="5" y="7.5" fill="currentColor" rx="1.25"/><rect width="12.5" height="2.5" x="8.75" y="13.75" fill="currentColor" rx="1.25"/><rect width="7.5" height="2.5" x="11.25" y="20" fill="currentColor" rx="1.25"/></symbol>
	<symbol id="treangle" viewBox="0 0 41 41" fill="none">
		<path d="M32.0275 18.8861C33.3608 19.6559 33.3608 21.5804 32.0275 22.3502L14.4165 32.5179C13.0832 33.2877 11.4165 32.3254 11.4165 30.7858L11.4165 10.4504C11.4165 8.91083 13.0832 7.94858 14.4165 8.71838L32.0275 18.8861Z" fill="currentColor"/>
	</symbol>
	<symbol id="various" viewBox="0 0 40 40" width="40" height="40" fill="none"><path stroke="currentColor" stroke-width="3.333" d="M31.667 6.667H8.333A3.333 3.333 0 0 0 5 10v20a3.333 3.333 0 0 0 3.333 3.333h23.334A3.333 3.333 0 0 0 35 30V10a3.333 3.333 0 0 0-3.333-3.333Z"/><rect width="20" height="3.333" x="10" y="11.666" fill="currentColor" rx="1.667"/><rect width="20" height="3.333" x="10" y="18.334" fill="currentColor" rx="1.667"/><rect width="20" height="3.333" x="10" y="25" fill="currentColor" rx="1.667"/></symbol>
	<symbol id="logist" viewBox="0 0 24 24" fill="none"><path fill="currentColor" d="M5.631 10.615a.86.86 0 0 1 1.2-1.23L8.077 10.6a1.676 1.676 0 0 1 0 2.4L5.63 10.615Z"/><path fill="currentColor" d="M11.17 7.585a.86.86 0 1 1 1.199 1.23L8.077 13a1.676 1.676 0 0 1 0-2.4l3.092-3.015Z"/><path fill="currentColor" d="M1.5 5.5a2 2 0 0 1 2-2H14a2 2 0 0 1 2 2V9h2.086a2 2 0 0 1 1.414.586l2.914 2.914A2 2 0 0 1 23 13.914V18a2 2 0 0 1-2 2h-2.5v-2H21v-4.086L18.086 11H16a2 2 0 0 1-2-2V5.5H3.5V18h2v2h-2a2 2 0 0 1-2-2V5.5Z"/><path fill="currentColor" fill-rule="evenodd" d="M14 18V9h2v9h-2ZM10 18h4v2h-4v-2Z" clip-rule="evenodd"/><path fill="currentColor" fill-rule="evenodd" d="M16.5 21a1.5 1.5 0 1 0 0-3 1.5 1.5 0 0 0 0 3Zm0 2a3.5 3.5 0 1 0 0-7 3.5 3.5 0 0 0 0 7ZM7.5 21a1.5 1.5 0 1 0 0-3 1.5 1.5 0 0 0 0 3Zm0 2a3.5 3.5 0 1 0 0-7 3.5 3.5 0 0 0 0 7Z" clip-rule="evenodd"/></symbol>
	<symbol id="comunication" viewBox="0 0 41 40" fill="none"><path fill="currentColor" fill-rule="evenodd" d="M21.539 10.044c0 3.706-3.181 6.71-7.106 6.71-3.924 0-7.105-3.004-7.105-6.71s3.181-6.71 7.105-6.71c3.925 0 7.106 3.004 7.106 6.71Zm-7.106 3.728c2.18 0 3.948-1.669 3.948-3.728s-1.768-3.728-3.948-3.728c-2.18 0-3.947 1.67-3.947 3.728 0 2.059 1.767 3.728 3.947 3.728Z" clip-rule="evenodd"/><path fill="currentColor" fill-rule="evenodd" d="M14.434 16.754c-3.052 0-5.526 2.337-5.526 5.22v.745c0 .824-.707 1.492-1.579 1.492s-1.579-.668-1.579-1.492v-.745c0-4.53 3.888-8.202 8.684-8.202 4.796 0 8.684 3.672 8.684 8.202v.745c0 .824-.706 1.492-1.578 1.492-.872 0-1.58-.668-1.58-1.492v-.745c0-2.883-2.474-5.22-5.526-5.22Z" clip-rule="evenodd"/><path fill="currentColor" fill-rule="evenodd" d="M34.17 21.974c0 3.706-3.18 6.71-7.105 6.71-3.924 0-7.105-3.004-7.105-6.71s3.181-6.71 7.105-6.71c3.924 0 7.105 3.004 7.105 6.71Zm-7.105 3.728c2.18 0 3.948-1.67 3.948-3.728 0-2.06-1.768-3.728-3.948-3.728-2.18 0-3.947 1.669-3.947 3.728s1.767 3.728 3.947 3.728Z" clip-rule="evenodd"/><path fill="currentColor" fill-rule="evenodd" d="M27.065 28.684c-3.052 0-5.526 2.337-5.526 5.22v.745c0 .824-.707 1.491-1.58 1.491-.871 0-1.578-.667-1.578-1.491v-.746c0-4.53 3.888-8.201 8.684-8.201 4.796 0 8.684 3.672 8.684 8.201v.746c0 .824-.707 1.491-1.579 1.491s-1.579-.667-1.579-1.491v-.746c0-2.882-2.474-5.219-5.526-5.219ZM27.55 12.744c0-1.84-1.58-3.333-3.529-3.333V6.078c3.899 0 7.06 2.984 7.06 6.666h-3.53Z" clip-rule="evenodd"/></symbol>
	<symbol id="videos" viewBox="0 0 24 25" fill="none"><path fill="currentColor" d="M17.525 11.125a.705.705 0 0 0 .35-.625.705.705 0 0 0-.35-.625L12.65 6.75a.69.69 0 0 0-.763-.038.703.703 0 0 0-.387.663v6.25c0 .3.13.521.388.663.259.142.513.13.762-.038l4.875-3.125ZM8 18.5c-.55 0-1.021-.196-1.413-.588A1.922 1.922 0 0 1 6 16.5v-12c0-.55.196-1.021.588-1.413A1.922 1.922 0 0 1 8 2.5h12c.55 0 1.021.196 1.413.588.392.392.588.863.587 1.412v12c0 .55-.196 1.021-.588 1.413A1.922 1.922 0 0 1 20 18.5H8Zm-4 4c-.55 0-1.021-.196-1.413-.588A1.922 1.922 0 0 1 2 20.5v-13c0-.283.096-.521.288-.713A.964.964 0 0 1 3 6.5c.283 0 .521.096.713.288.192.192.288.43.287.712v13h13c.283 0 .521.096.713.288.192.192.288.43.287.712a.968.968 0 0 1-.288.713.964.964 0 0 1-.712.287H4Z"/></symbol>
	<symbol id="articles" viewBox="0 0 24 24" fill="none"><path fill="currentColor" d="M20.897 3.103A2.4 2.4 0 0 0 19.2 2.4H4.8a2.4 2.4 0 0 0-2.4 2.4h19.2a2.4 2.4 0 0 0-.703-1.697Z"/><path fill="currentColor" fill-rule="evenodd" d="M4 6a3 3 0 0 0-3 3v11a3 3 0 0 0 3 3h16a3 3 0 0 0 3-3V9a3 3 0 0 0-3-3H4Zm1.556 4a.556.556 0 1 0 0 1.111h12.888a.556.556 0 1 0 0-1.111H5.556ZM5 15c0-.307.249-.556.556-.556h12.888a.556.556 0 1 1 0 1.112H5.556A.556.556 0 0 1 5 15Zm.556 3.889a.556.556 0 1 0 0 1.111h12.888a.556.556 0 1 0 0-1.111H5.556Z" clip-rule="evenodd"/></symbol>
	<symbol id="star" viewBox="0 0 24 24" fill="none"><g clip-path="url(#a)"><path fill="currentColor" d="M11.092 1.969a1 1 0 0 1 1.816 0l2.243 4.863a1 1 0 0 0 .79.574l5.319.63a1 1 0 0 1 .561 1.728L17.889 13.4a1 1 0 0 0-.302.929l1.044 5.253a1 1 0 0 1-1.47 1.067l-4.673-2.616a1 1 0 0 0-.976 0L6.838 20.65a1 1 0 0 1-1.469-1.067l1.044-5.253a1 1 0 0 0-.302-.93L2.179 9.765a1 1 0 0 1 .561-1.727l5.318-.631a1 1 0 0 0 .79-.574l2.244-4.863Z"/></g><defs><clipPath id="a"><path fill="currentColor" d="M0 0h24v24H0z"/></clipPath></defs></symbol>
</svg>
