<svg width="32" height="32" viewBox="0 0 32 32" fill="none" xmlns="http://www.w3.org/2000/svg">
	<g clip-path="url(#clip0_10_12)">
	<path d="M29.752 3.58095C27.9669 1.14285 25.2562 0 21.3553 0H10.6446C6.74379 0 4.03305 1.14285 2.24793 3.58095C0.727275 5.71428 0 8.83809 0 13.3334V19.2C0 23.3143 0.793384 26.3619 2.38016 28.4953C4.29752 30.8572 7.14051 32 11.5041 32H20.4958C24.8595 32 27.7685 30.8572 29.6198 28.419C31.2066 26.2857 32 23.3143 32 19.1238V13.2572C32 8.83809 31.2727 5.71428 29.752 3.58095ZM10.6446 2.81905H12.6281C11.5041 3.80953 10.5124 5.40953 9.71897 7.39047C7.66938 6.78095 5.88429 5.86666 4.56198 4.8C5.88429 3.42857 7.80167 2.81905 10.6446 2.81905ZM3.8347 25.9047C2.90909 24.3047 2.44628 22.0953 2.44628 19.0476V16.6857H8.33054C8.39672 18.9714 8.72726 21.1809 9.32232 23.1619C7.0744 23.7715 5.22313 24.7619 3.8347 25.9047ZM8.26443 15.2381H2.44628V13.2572C2.44628 9.90473 2.84297 7.54285 3.76859 5.94285C5.15702 7.16191 7.00822 8.15237 9.25621 8.83809C8.66116 10.7428 8.33054 12.9524 8.26443 15.2381ZM15.3388 29.0285C13.6198 28.6476 12.0331 26.8953 10.9091 24.1524C12.2975 23.8476 13.8181 23.6191 15.3388 23.6191V29.0285ZM15.3388 22.1714C13.6198 22.2476 12.0331 22.4 10.4462 22.7809C9.85126 20.9524 9.58675 18.8191 9.52064 16.6857H15.3388V22.1714ZM15.3388 8.30473C13.8181 8.22855 12.3636 8.07618 10.9091 7.77145C12.0331 5.02857 13.6198 3.2 15.3388 2.89524V8.30473ZM16.595 29.0285V23.6191C18.1156 23.6953 19.5703 23.8476 21.0248 24.1524C19.9008 26.9714 18.314 28.7238 16.595 29.0285ZM21.4876 22.7809C19.9008 22.4 18.314 22.1714 16.595 22.1714V16.6857H22.4132C22.4132 18.8191 22.0826 20.9524 21.4876 22.7809ZM16.595 15.2381V9.75237C18.314 9.67618 19.9008 9.52382 21.4876 9.14282C22.0826 10.9714 22.3471 13.1047 22.4132 15.2381H16.595ZM29.5537 19.0476C29.5537 22.0953 29.0909 24.3809 28.1653 25.9047C26.7768 24.6857 24.9256 23.7715 22.7438 23.0857C23.3388 21.1047 23.6694 18.8953 23.7355 16.6095H29.6198L29.5537 19.0476ZM29.5537 15.2381H23.6694C23.6033 12.9524 23.2727 10.7428 22.6777 8.76191C24.9256 8.07618 26.7768 7.08572 28.1653 5.86666C29.0909 7.46666 29.4876 9.82855 29.4876 13.1809L29.5537 15.2381Z" fill="#21A398"/>
	</g>
	<defs>
	<clipPath id="clip0_10_12">
	<rect width="32" height="32" fill="white"/>
	</clipPath>
	</defs>
</svg>
