<svg xmlns="http://www.w3.org/2000/svg">
	<symbol id="logo" viewBox="0 0 164 42" fill="none"><g clip-path="url(#a)"><path fill="#11514C" d="M77.862 4.447h-5.928c-3.656 0-4.842 1.68-4.94 5.236h-2.471V4.447h-3.557v13.339h3.557v-5.237h2.47c0 3.854 1.68 5.237 5.435 5.237h4.94c3.755 0 5.435-1.384 5.435-5.237V9.782c-.1-3.656-1.285-5.335-4.94-5.335ZM70.65 14.92V7.41h8.399v7.51h-8.399ZM89.028 7.312v10.474H85.47V7.312a2.868 2.868 0 0 1 2.865-2.865H98.81V7.41l-9.782-.099ZM120.845 4.447h-5.929c-3.755 0-4.94 1.778-4.94 5.434v2.767c0 3.853 1.679 5.237 5.434 5.237h4.941c3.754 0 5.434-1.384 5.434-5.237V9.782c-.099-3.656-1.284-5.335-4.94-5.335Zm-7.213 10.473V7.312h8.398v7.51l-8.398.098ZM143.966 4.447v13.339h-3.656V7.51l-5.237 8.893c-.494.889-1.482 1.383-2.47 1.383h-4.15V4.446h3.656v10.277l5.336-8.893c.494-.89 1.482-1.383 2.47-1.383h4.051ZM132.701 2.964V0h7.114v2.964h-7.114ZM100.193 12.549V9.584h7.115v2.965h-7.115ZM76.479 26.382v10.573h-3.557V26.48h-8.399v10.474h-3.557V26.382a2.868 2.868 0 0 1 2.865-2.865h9.881c1.482 0 2.767 1.284 2.767 2.865ZM113.631 36.955h-3.656l-.988-3.063h-7.213l-.988 3.063H97.13l3.557-11.363c.395-1.186 1.482-1.976 2.767-1.976h4.051a2.88 2.88 0 0 1 2.767 1.976l3.359 11.363Zm-9.584-10.474-1.285 4.249h5.336l-1.285-4.249h-2.766ZM88.928 23.616h-4.05c-1.285 0-2.372.79-2.767 1.976l-3.459 11.363h3.656L85.47 26.48h2.767l3.162 10.474h3.656l-3.459-11.363c-.296-1.186-1.482-1.976-2.668-1.976ZM156.317 4.447h-4.051c-1.285 0-2.371.79-2.767 1.976l-3.458 11.363h3.656l3.261-10.474h2.766l3.162 10.474h3.656l-3.458-11.363c-.395-1.186-1.482-1.976-2.767-1.976ZM130.528 26.48v-2.963h-10.672c-3.754 0-4.94 1.778-4.94 5.434v2.767c0 3.853 1.68 5.237 5.435 5.237h10.177V33.99h-11.857v-7.51h11.857ZM148.709 26.48h-6.028v10.475h-3.557V26.48h-6.027v-2.964h15.513l.099 2.964Z"/><path fill="#21A398" d="M44.958 4.644C42.291 1.482 38.24 0 32.41 0H16.403c-5.83 0-9.881 1.482-12.55 4.644C1.582 7.411.495 11.462.495 17.292V24.9c0 5.336 1.186 9.288 3.557 12.055 2.866 3.063 7.115 4.545 13.636 4.545h13.438c6.522 0 10.87-1.482 13.636-4.644 2.371-2.767 3.557-6.62 3.557-12.055v-7.608c0-5.731-1.087-9.782-3.36-12.549Zm-28.555-.988h2.964c-1.68 1.284-3.162 3.36-4.348 5.929-3.063-.791-5.73-1.977-7.707-3.36 1.976-1.779 4.842-2.569 9.09-2.569ZM6.224 33.596C4.842 31.52 4.15 28.654 4.15 24.701V21.64h8.794c.099 2.965.593 5.83 1.482 8.4-3.36.79-6.126 2.074-8.2 3.556Zm6.62-13.834H4.15v-2.57c0-4.347.593-7.41 1.976-9.485 2.075 1.581 4.842 2.866 8.201 3.755-.889 2.47-1.383 5.336-1.482 8.3Zm10.573 17.884c-2.57-.494-4.94-2.766-6.62-6.323 2.075-.396 4.347-.692 6.62-.692v7.015Zm0-8.892c-2.57.098-4.94.296-7.312.79-.89-2.371-1.285-5.138-1.383-7.905h8.695v7.115Zm0-17.984c-2.273-.099-4.447-.296-6.62-.691 1.68-3.558 4.05-5.929 6.62-6.324v7.015Zm1.877 26.876v-7.015c2.273.099 4.447.296 6.62.692-1.68 3.656-4.05 5.928-6.62 6.323Zm7.312-8.102c-2.371-.494-4.743-.79-7.312-.79v-7.115h8.696c0 2.767-.495 5.534-1.384 7.905Zm-7.312-9.782v-7.114c2.57-.1 4.94-.297 7.312-.79.89 2.37 1.285 5.137 1.384 7.904h-8.696Zm19.367 4.94c0 3.953-.692 6.917-2.075 8.893-2.075-1.58-4.842-2.766-8.102-3.656.889-2.569 1.383-5.434 1.482-8.398h8.794l-.099 3.161Zm0-4.94h-8.794c-.099-2.964-.593-5.83-1.482-8.399 3.36-.89 6.126-2.174 8.201-3.755 1.383 2.075 1.976 5.138 1.976 9.486l.099 2.668Z"/></g><defs><clipPath id="a"><path fill="#fff" d="M0 0h163.036v41.5H0z"/></clipPath></defs></symbol>
	<symbol id="logo-white" viewBox="0 0 164 42" fill="none"><g fill="#fff" clip-path="url(#a)"><path d="M77.862 4.446h-5.928c-3.656 0-4.842 1.68-4.94 5.237h-2.471V4.446h-3.557v13.34h3.557v-5.237h2.47c0 3.853 1.68 5.237 5.435 5.237h4.94c3.755 0 5.435-1.384 5.435-5.237V9.782c-.1-3.656-1.285-5.336-4.94-5.336ZM70.65 14.92V7.41h8.399v7.51h-8.399ZM89.028 7.312v10.474H85.47V7.312a2.868 2.868 0 0 1 2.865-2.866H98.81v2.965l-9.782-.1ZM120.845 4.446h-5.929c-3.755 0-4.94 1.779-4.94 5.435v2.767c0 3.853 1.679 5.236 5.434 5.236h4.941c3.754 0 5.434-1.383 5.434-5.236V9.782c-.099-3.656-1.284-5.336-4.94-5.336Zm-7.213 10.474V7.312h8.398v7.51l-8.398.098ZM143.966 4.446v13.34h-3.656V7.509l-5.237 8.893c-.494.89-1.482 1.384-2.47 1.384h-4.15V4.446h3.656v10.277l5.336-8.893c.494-.89 1.482-1.384 2.47-1.384h4.051ZM132.701 2.964V0h7.114v2.964h-7.114ZM100.193 12.55V9.584h7.115v2.964h-7.115ZM76.479 26.382v10.573h-3.557V26.48h-8.399v10.474h-3.557V26.382a2.868 2.868 0 0 1 2.865-2.865h9.881c1.482 0 2.767 1.284 2.767 2.865ZM113.631 36.955h-3.656l-.988-3.064h-7.213l-.988 3.064H97.13l3.557-11.364c.395-1.185 1.482-1.976 2.767-1.976h4.051a2.88 2.88 0 0 1 2.767 1.976l3.359 11.364Zm-9.584-10.474-1.285 4.248h5.336l-1.285-4.248h-2.766ZM88.928 23.615h-4.05c-1.285 0-2.372.79-2.767 1.976l-3.459 11.364h3.656L85.47 26.48h2.767l3.162 10.474h3.656L91.596 25.59c-.296-1.185-1.482-1.976-2.668-1.976ZM156.317 4.446h-4.051c-1.285 0-2.371.79-2.767 1.976l-3.458 11.364h3.656l3.261-10.474h2.766l3.162 10.474h3.656l-3.458-11.364c-.395-1.185-1.482-1.976-2.767-1.976ZM130.528 26.48v-2.963h-10.672c-3.754 0-4.94 1.778-4.94 5.434v2.767c0 3.853 1.68 5.237 5.435 5.237h10.177V33.99h-11.857v-7.51h11.857ZM148.709 26.48h-6.028v10.475h-3.557V26.48h-6.027v-2.964h15.513l.099 2.964ZM44.958 4.644C42.291 1.482 38.24 0 32.41 0H16.403c-5.83 0-9.881 1.482-12.55 4.644C1.582 7.411.495 11.462.495 17.292V24.9c0 5.336 1.186 9.288 3.557 12.055 2.866 3.063 7.115 4.545 13.636 4.545h13.438c6.522 0 10.87-1.482 13.636-4.644 2.371-2.767 3.557-6.62 3.557-12.055v-7.608c0-5.731-1.087-9.782-3.36-12.549Zm-28.555-.988h2.964c-1.68 1.284-3.162 3.36-4.348 5.929-3.063-.791-5.73-1.977-7.707-3.36 1.976-1.779 4.842-2.569 9.09-2.569ZM6.224 33.596C4.842 31.52 4.15 28.654 4.15 24.701V21.64h8.794c.099 2.965.593 5.83 1.482 8.4-3.36.79-6.126 2.074-8.2 3.556Zm6.62-13.834H4.15v-2.57c0-4.347.593-7.41 1.976-9.485 2.075 1.581 4.842 2.866 8.201 3.755-.889 2.47-1.383 5.336-1.482 8.3Zm10.573 17.884c-2.57-.494-4.94-2.766-6.62-6.323 2.075-.396 4.347-.692 6.62-.692v7.015Zm0-8.892c-2.57.098-4.94.296-7.312.79-.89-2.371-1.285-5.138-1.383-7.905h8.695v7.115Zm0-17.984c-2.273-.099-4.447-.296-6.62-.691 1.68-3.558 4.05-5.929 6.62-6.324v7.015Zm1.877 26.876v-7.015c2.273.099 4.447.296 6.62.692-1.68 3.656-4.05 5.928-6.62 6.323Zm7.312-8.102c-2.371-.494-4.743-.79-7.312-.79v-7.115h8.696c0 2.767-.495 5.534-1.384 7.905Zm-7.312-9.782v-7.114c2.57-.1 4.94-.297 7.312-.79.89 2.37 1.285 5.137 1.384 7.904h-8.696Zm19.367 4.94c0 3.953-.692 6.917-2.075 8.893-2.075-1.58-4.842-2.766-8.102-3.656.889-2.569 1.383-5.434 1.482-8.398h8.794l-.099 3.161Zm0-4.94h-8.794c-.099-2.964-.593-5.83-1.482-8.399 3.36-.89 6.126-2.174 8.201-3.755 1.383 2.075 1.976 5.138 1.976 9.486l.099 2.668Z"/></g><defs><clipPath id="a"><path fill="#fff" d="M0 0h163.036v41.5H0z"/></clipPath></defs></symbol>
	<symbol id="logomin" viewBox="0 0 87 22" fill="none">
		<g fill="#fff" clip-path="url(#a)">
			<path d="M41.276 2.357h-3.143c-1.938 0-2.567.89-2.619 2.776h-1.31V2.357H32.32V9.43h1.886V6.652h1.31c0 2.043.89 2.777 2.88 2.777h2.62c1.99 0 2.88-.734 2.88-2.777V5.186c-.052-1.938-.68-2.829-2.619-2.829ZM37.452 7.91V3.929h4.453v3.98h-4.453ZM47.195 3.876V9.43H45.31V3.876c0-.838.68-1.519 1.519-1.519h5.552V3.93l-5.186-.053ZM64.062 2.357h-3.143c-1.99 0-2.62.943-2.62 2.881v1.467c0 2.043.891 2.776 2.882 2.776H63.8c1.99 0 2.88-.733 2.88-2.776v-1.52c-.052-1.937-.68-2.828-2.618-2.828ZM60.238 7.91V3.876h4.452v3.981l-4.452.053ZM76.319 2.357V9.43h-1.938V3.98l-2.776 4.714c-.262.472-.786.734-1.31.734h-2.2V2.357h1.938v5.448l2.829-4.715c.262-.471.786-.733 1.31-.733h2.147ZM70.348 1.571V0h3.771v1.571h-3.771ZM53.114 6.652V5.081h3.772v1.571h-3.772ZM40.543 13.986v5.604h-1.886v-5.552h-4.452v5.552h-1.886v-5.604a1.52 1.52 0 0 1 1.519-1.52h5.238c.786 0 1.467.682 1.467 1.52ZM60.238 19.59H58.3l-.524-1.623h-3.824l-.524 1.623H51.49l1.886-6.023a1.526 1.526 0 0 1 1.467-1.048h2.147c.681 0 1.257.42 1.467 1.048l1.78 6.023Zm-5.081-5.552-.681 2.253h2.828l-.68-2.253h-1.467ZM47.143 12.519h-2.148c-.68 0-1.257.42-1.466 1.048l-1.834 6.023h1.938l1.677-5.552h1.466l1.676 5.552h1.939l-1.834-6.023c-.157-.629-.785-1.048-1.414-1.048ZM82.867 2.357h-2.148c-.681 0-1.257.42-1.467 1.048L77.42 9.429h1.938l1.729-5.553h1.466l1.676 5.553h1.939l-1.834-6.024a1.526 1.526 0 0 0-1.466-1.048ZM69.195 14.038v-1.571h-5.657c-1.99 0-2.62.942-2.62 2.88v1.467c0 2.043.891 2.776 2.882 2.776h5.395v-1.57H62.91v-3.982h6.286ZM78.833 14.038h-3.195v5.552h-1.886v-5.552h-3.195v-1.571h8.224l.052 1.571ZM23.833 2.462C22.42.786 20.271 0 17.181 0H8.695c-3.09 0-5.238.786-6.652 2.462C.838 3.929.262 6.076.262 9.167V13.2c0 2.829.628 4.924 1.885 6.39C3.667 21.214 5.92 22 9.376 22H16.5c3.457 0 5.762-.786 7.228-2.462 1.257-1.467 1.886-3.51 1.886-6.39V9.114c0-3.038-.576-5.185-1.78-6.652ZM8.695 1.938h1.572C9.376 2.62 8.59 3.72 7.962 5.081 6.338 4.66 4.924 4.033 3.876 3.3c1.048-.943 2.567-1.362 4.82-1.362ZM3.3 17.81c-.734-1.1-1.1-2.619-1.1-4.714v-1.624h4.662c.052 1.572.314 3.09.785 4.453-1.78.419-3.247 1.1-4.347 1.886Zm3.51-7.333H2.2V9.114c0-2.304.314-3.928 1.047-5.028 1.1.838 2.567 1.519 4.348 1.99-.471 1.31-.733 2.829-.786 4.4Zm5.604 9.481c-1.362-.262-2.619-1.466-3.51-3.352 1.1-.21 2.305-.367 3.51-.367v3.72Zm0-4.714c-1.362.052-2.619.157-3.876.419-.472-1.257-.681-2.724-.733-4.19h4.61v3.77Zm0-9.533c-1.205-.053-2.357-.158-3.51-.367.891-1.886 2.148-3.143 3.51-3.353v3.72Zm.995 14.247v-3.719c1.205.053 2.357.157 3.51.367-.89 1.938-2.148 3.143-3.51 3.352Zm3.876-4.295a18.7 18.7 0 0 0-3.876-.42v-3.77h4.61c0 1.466-.262 2.933-.733 4.19Zm-3.876-5.186V6.705c1.362-.053 2.62-.157 3.876-.42.472 1.258.681 2.725.734 4.191h-4.61Zm10.267 2.62c0 2.095-.367 3.666-1.1 4.713-1.1-.838-2.567-1.466-4.295-1.938.471-1.362.733-2.88.786-4.452h4.661l-.052 1.676Zm0-2.62h-4.662c-.052-1.571-.314-3.09-.786-4.452 1.781-.472 3.248-1.153 4.348-1.99.733 1.1 1.048 2.723 1.048 5.028l.052 1.414Z"/>
		</g>
		<defs>
			<clipPath id="a">
				<path fill="#fff" d="M0 0h86.429v22H0z"/>
			</clipPath>
		</defs>
	</symbol>
</svg>
